<?xml version="1.0" encoding="UTF-8"?>
<svg id="Layer_1" data-name="Layer 1" xmlns="http://www.w3.org/2000/svg" width="627.94" height="102.08" viewBox="0 0 627.94 102.08">
  <defs>
    <style>
      .cls-1, .cls-2 {
        fill: #232f3e;
      }

      .cls-2 {
        fill-rule: evenodd;
      }
    </style>
  </defs>
  <g id="AB_-_No_Tagline_-_Triton" data-name="AB - No Tagline - Triton">
    <g>
      <g>
        <path class="cls-1" d="m542.2,44.8c3.38-2.3,5.08-5.7,5.08-10.19s-1.58-8.08-4.72-10.77c-3.15-2.69-7.51-4.04-13.08-4.04-7.25,0-12.92,2.22-16.99,6.65-4.08,4.43-6.11,10.54-6.11,18.32s1.99,13.44,5.98,17.51c3.99,4.07,9.69,6.1,17.13,6.1,4.91,0,9.56-.84,13.94-2.51.78-.3,1.3-.64,1.57-1.03.27-.39.4-1.06.4-2.02v-4.13c0-1.38-.51-2.07-1.53-2.07-.12,0-.27.02-.45.04-.18.03-.36.08-.54.14-2.82.72-5.02,1.18-6.61,1.39-1.59.21-3.22.31-4.9.31-4.2,0-7.33-.87-9.4-2.6-2.07-1.74-3.28-4.61-3.64-8.62,2.52.66,5.49.99,8.9.99,6.59,0,11.58-1.15,14.97-3.46Zm-23.69-5.34c.9-7.06,4.23-10.6,9.98-10.6,4.49,0,6.74,1.89,6.74,5.66,0,1.92-.69,3.34-2.07,4.26-1.38.93-3.6,1.39-6.65,1.39s-5.61-.24-8-.72Z"/>
        <path class="cls-1" d="m384.01,21.15h-8.55c-.77,0-1.34.16-1.69.49-.36.33-.53.91-.53,1.75v32.12c-2.97,1.92-5.99,2.88-9.08,2.88-4.15,0-6.23-2.43-6.23-7.29v-27.71c0-.84-.16-1.42-.49-1.75-.33-.33-.91-.49-1.74-.49h-8.55c-.77,0-1.34.16-1.69.49-.36.33-.53.91-.53,1.75v31.4c0,4.26,1.13,7.6,3.38,10.03,2.26,2.43,5.4,3.64,9.44,3.64,5.76,0,11.28-2.07,16.56-6.21l.8,2.88c.18.72.46,1.23.85,1.53.39.3.93.45,1.65.45h6.41c.83,0,1.41-.18,1.74-.54.33-.36.49-.93.49-1.71V23.39c0-.84-.16-1.42-.49-1.75-.33-.33-.91-.49-1.74-.49Z"/>
        <path class="cls-1" d="m318.41,19.8c-2.26,0-4.54.43-6.86,1.3-2.31.87-4.33,2.05-6.05,3.55V2.79c0-.84-.16-1.42-.49-1.75-.33-.33-.91-.49-1.74-.49h-8.55c-.77,0-1.34.16-1.69.49-.36.33-.53.91-.53,1.75v62.09c0,.78.18,1.35.53,1.71.36.36.92.54,1.69.54h6.59c1.37,0,2.2-.66,2.49-1.98l.62-2.52c1.6,1.74,3.59,3.09,5.97,4.05,2.37.96,4.93,1.44,7.66,1.44,3.68,0,6.94-1,9.79-3.01,2.85-2.01,5.1-4.87,6.77-8.59,1.66-3.72,2.49-8.07,2.49-13.05,0-7.26-1.68-13.02-5.03-17.28-3.35-4.26-7.91-6.39-13.67-6.39Zm3.16,35c-1.57,2.28-4.02,3.42-7.35,3.42s-6.11-.81-8.72-2.43v-23.66c2.73-1.62,5.64-2.43,8.72-2.43,3.38,0,5.85,1.14,7.39,3.42,1.54,2.28,2.31,5.91,2.31,10.89s-.79,8.52-2.36,10.8Z"/>
        <path class="cls-1" d="m418.19,40.76l-6.77-2.79c-2.2-.9-3.64-1.66-4.32-2.29-.68-.63-1.02-1.45-1.02-2.47,0-1.32.56-2.28,1.69-2.88,1.13-.6,2.91-.9,5.34-.9,3.26,0,6.14.36,8.64,1.08,1.31.36,2.14.54,2.49.54,1.01,0,1.51-.69,1.51-2.07v-3.96c0-.96-.13-1.63-.4-2.02-.27-.39-.79-.73-1.56-1.03-3.68-1.44-7.63-2.16-11.84-2.16-5.4,0-9.72,1.24-12.95,3.73-3.23,2.49-4.85,5.77-4.85,9.85,0,3.24.8,5.91,2.4,8.01,1.6,2.1,4.21,3.87,7.83,5.31l6.94,2.79c2.08.78,3.46,1.5,4.14,2.16.68.66,1.02,1.59,1.02,2.79,0,3-2.14,4.5-6.41,4.5-2.14,0-4.41-.18-6.81-.54-2.4-.36-4.58-.87-6.54-1.53-.53-.18-.95-.27-1.25-.27-1.01,0-1.51.69-1.51,2.07v4.05c0,.9.12,1.54.36,1.93.24.39.77.76,1.6,1.12,4.21,1.86,8.96,2.79,14.25,2.79s9.87-1.36,13.22-4.09c3.35-2.73,5.03-6.31,5.03-10.75,0-3.18-.79-5.76-2.36-7.74-1.57-1.98-4.2-3.72-7.88-5.22Z"/>
        <path class="cls-1" d="m617.7,40.76l-6.77-2.79c-2.2-.9-3.64-1.66-4.32-2.29-.68-.63-1.02-1.45-1.02-2.47,0-1.32.56-2.28,1.69-2.88,1.13-.6,2.91-.9,5.34-.9,3.26,0,6.14.36,8.64,1.08,1.31.36,2.14.54,2.49.54,1.01,0,1.51-.69,1.51-2.07v-3.96c0-.96-.13-1.63-.4-2.02-.27-.39-.79-.73-1.56-1.03-3.68-1.44-7.63-2.16-11.84-2.16-5.4,0-9.72,1.24-12.95,3.73-3.23,2.49-4.85,5.77-4.85,9.85,0,3.24.8,5.91,2.4,8.01,1.6,2.1,4.21,3.87,7.83,5.31l6.94,2.79c2.08.78,3.46,1.5,4.14,2.16.68.66,1.02,1.59,1.02,2.79,0,3-2.14,4.5-6.41,4.5-2.14,0-4.41-.18-6.81-.54-2.4-.36-4.58-.87-6.54-1.53-.53-.18-.95-.27-1.25-.27-1.01,0-1.51.69-1.51,2.07v4.05c0,.9.12,1.54.36,1.93.24.39.77.76,1.6,1.12,4.21,1.86,8.96,2.79,14.25,2.79s9.87-1.36,13.22-4.09c3.35-2.73,5.03-6.31,5.03-10.75,0-3.18-.79-5.76-2.36-7.74-1.57-1.98-4.2-3.72-7.88-5.22Z"/>
        <path class="cls-1" d="m577.5,40.76l-6.77-2.79c-2.2-.9-3.64-1.66-4.32-2.29-.68-.63-1.02-1.45-1.02-2.47,0-1.32.56-2.28,1.69-2.88,1.13-.6,2.91-.9,5.34-.9,3.26,0,6.14.36,8.64,1.08,1.31.36,2.14.54,2.49.54,1.01,0,1.51-.69,1.51-2.07v-3.96c0-.96-.13-1.63-.4-2.02-.27-.39-.79-.73-1.56-1.03-3.68-1.44-7.63-2.16-11.84-2.16-5.4,0-9.72,1.24-12.95,3.73-3.23,2.49-4.85,5.77-4.85,9.85,0,3.24.8,5.91,2.4,8.01s4.21,3.87,7.83,5.31l6.94,2.79c2.08.78,3.46,1.5,4.14,2.16.68.66,1.02,1.59,1.02,2.79,0,3-2.14,4.5-6.41,4.5-2.14,0-4.41-.18-6.81-.54-2.4-.36-4.59-.87-6.54-1.53-.53-.18-.95-.27-1.25-.27-1.01,0-1.51.69-1.51,2.07v4.05c0,.9.12,1.54.36,1.93s.77.76,1.6,1.12c4.21,1.86,8.96,2.79,14.24,2.79s9.87-1.36,13.22-4.09c3.35-2.73,5.03-6.31,5.03-10.75,0-3.18-.79-5.76-2.36-7.74-1.57-1.98-4.2-3.72-7.88-5.22Z"/>
        <path class="cls-1" d="m486.45,19.8c-6.05,0-11.75,2.1-17.09,6.3l-.8-2.97c-.3-1.32-1.13-1.98-2.49-1.98h-6.41c-.77,0-1.34.16-1.69.49-.36.33-.53.91-.53,1.75v41.48c0,.78.18,1.35.53,1.71s.92.54,1.69.54h8.55c.83,0,1.41-.18,1.74-.54s.49-.93.49-1.71v-31.94c3.21-2.04,6.44-3.06,9.7-3.06,2.2,0,3.83.57,4.9,1.71,1.07,1.14,1.6,2.94,1.6,5.4v27.89c0,.78.18,1.35.53,1.71.36.36.92.54,1.69.54h8.55c.83,0,1.41-.18,1.74-.54.33-.36.49-.93.49-1.71v-31.76c0-4.26-1.14-7.54-3.43-9.85-2.28-2.31-5.53-3.46-9.75-3.46Z"/>
        <path class="cls-1" d="m446.04,21.15h-8.55c-.77,0-1.34.16-1.69.49-.36.33-.53.91-.53,1.75v41.48c0,.78.18,1.35.53,1.71.36.36.92.54,1.69.54h8.55c.83,0,1.41-.18,1.74-.54s.49-.93.49-1.71V23.39c0-.84-.16-1.42-.49-1.75-.33-.33-.91-.49-1.74-.49Z"/>
        <path class="cls-1" d="m441.78,0c-2.26,0-4.07.63-5.43,1.89-1.37,1.26-2.05,2.97-2.05,5.13s.68,3.87,2.05,5.13c1.37,1.26,3.18,1.89,5.43,1.89s4.07-.63,5.43-1.89c1.37-1.26,2.05-2.97,2.05-5.13s-.68-3.87-2.05-5.13c-1.37-1.26-3.18-1.89-5.43-1.89Z"/>
      </g>
      <g>
        <g>
          <path class="cls-2" d="m169.96,84.08c-15.92,11.75-38.99,17.99-58.86,17.99-27.85,0-52.93-10.29-71.91-27.43-1.49-1.35-.16-3.18,1.63-2.14,20.48,11.91,45.8,19.09,71.95,19.09,17.64,0,37.03-3.66,54.88-11.23,2.69-1.14,4.95,1.77,2.31,3.72Z"/>
          <path class="cls-2" d="m176.58,76.52c-2.04-2.61-13.46-1.23-18.59-.62-1.55.19-1.8-1.17-.39-2.16,9.11-6.4,24.04-4.55,25.78-2.41,1.75,2.16-.46,17.13-9,24.27-1.31,1.1-2.56.51-1.98-.94,1.92-4.8,6.22-15.54,4.19-18.15Z"/>
        </g>
        <g>
          <path class="cls-2" d="m158.35,28.54v-6.22c0-.95.72-1.58,1.58-1.57h27.87c.89,0,1.61.65,1.61,1.57v5.33c0,.9-.76,2.06-2.1,3.91l-14.44,20.61c5.36-.13,11.03.68,15.9,3.41,1.1.62,1.39,1.53,1.48,2.43v6.64c0,.91-1,1.97-2.05,1.42-8.58-4.49-19.96-4.98-29.45.06-.97.52-1.98-.53-1.98-1.44v-6.31c0-1.01.02-2.74,1.04-4.27l16.73-24h-14.56c-.89,0-1.61-.64-1.61-1.57Z"/>
          <path class="cls-2" d="m56.69,67.38h-8.48c-.81-.05-1.45-.66-1.52-1.43V22.43c0-.87.74-1.57,1.64-1.57h7.9c.83.04,1.49.66,1.54,1.46v5.68h.16c2.06-5.49,5.94-8.06,11.16-8.06s8.63,2.56,11,8.06c2.06-5.49,6.73-8.06,11.71-8.06,3.56,0,7.44,1.47,9.81,4.76,2.69,3.66,2.14,8.97,2.14,13.64v27.46c0,.87-.74,1.57-1.64,1.57h-8.47c-.85-.05-1.52-.73-1.52-1.56v-23.07c0-1.83.16-6.41-.24-8.15-.63-2.93-2.53-3.76-4.98-3.76-2.06,0-4.2,1.37-5.07,3.57-.87,2.2-.79,5.86-.79,8.33v23.07c0,.87-.73,1.57-1.63,1.57h-8.47c-.85-.05-1.52-.73-1.52-1.56v-23.07c0-4.85.78-11.99-5.23-11.99s-5.86,6.96-5.86,11.99v23.07c0,.87-.74,1.57-1.64,1.57Z"/>
          <path class="cls-2" d="m213.4,19.94c12.58,0,19.39,10.81,19.39,24.54s-7.52,23.81-19.39,23.81-19.08-10.81-19.08-24.27,6.81-24.08,19.08-24.08Zm.08,8.88c-6.25,0-6.65,8.51-6.65,13.83s-.08,16.67,6.57,16.67,6.89-9.16,6.89-14.74c0-3.66-.16-8.06-1.27-11.54-.95-3.02-2.85-4.21-5.54-4.21Z"/>
          <path class="cls-2" d="m249.11,67.38h-8.45c-.85-.05-1.52-.73-1.52-1.56V22.28c.06-.8.76-1.42,1.62-1.42h7.86c.74.04,1.35.54,1.51,1.22v6.66h.16c2.38-5.95,5.7-8.79,11.55-8.79,3.8,0,7.52,1.37,9.89,5.13,2.22,3.48,2.22,9.34,2.22,13.55v27.38c-.09.77-.79,1.37-1.63,1.37h-8.5c-.79-.05-1.42-.63-1.51-1.37v-23.63c0-4.76.55-11.72-5.3-11.72-2.06,0-3.96,1.37-4.91,3.48-1.19,2.66-1.35,5.31-1.35,8.24v23.43c-.01.87-.75,1.57-1.65,1.57Z"/>
          <path class="cls-2" d="m136.14,46.59c0,3.31.08,6.06-1.59,8.99-1.35,2.38-3.49,3.85-5.87,3.85-3.25,0-5.16-2.48-5.16-6.15,0-7.22,6.48-8.53,12.61-8.53v1.83Zm8.55,20.67c-.56.5-1.37.54-2,.2-2.82-2.34-3.32-3.42-4.86-5.65-4.65,4.74-7.95,6.16-13.98,6.16-7.14,0-12.69-4.41-12.69-13.22,0-6.88,3.73-11.56,9.04-13.86,4.6-2.02,11.03-2.39,15.94-2.94v-1.1c0-2.02.16-4.4-1.03-6.15-1.03-1.56-3.01-2.2-4.76-2.2-3.23,0-6.11,1.66-6.82,5.09-.15.76-.7,1.52-1.47,1.56l-8.22-.89c-.69-.16-1.46-.71-1.27-1.77,1.89-9.97,10.89-12.98,18.96-12.98,4.13,0,9.52,1.1,12.77,4.22,4.13,3.85,3.73,8.99,3.73,14.59v13.21c0,3.98,1.65,5.72,3.2,7.86.54.77.66,1.69-.03,2.25-1.73,1.45-4.81,4.12-6.5,5.63l-.02-.02Z"/>
          <path class="cls-2" d="m24.98,46.59c0,3.31.08,6.06-1.59,8.99-1.35,2.38-3.49,3.85-5.87,3.85-3.25,0-5.16-2.48-5.16-6.15,0-7.22,6.48-8.53,12.61-8.53v1.83Zm8.55,20.67c-.56.5-1.37.54-2,.2-2.82-2.34-3.32-3.42-4.86-5.65-4.66,4.74-7.95,6.16-13.98,6.16-7.14,0-12.69-4.41-12.69-13.22,0-6.88,3.73-11.56,9.04-13.86,4.6-2.02,11.03-2.39,15.94-2.94v-1.1c0-2.02.16-4.4-1.03-6.15-1.03-1.56-3.02-2.2-4.76-2.2-3.23,0-6.11,1.66-6.81,5.09-.15.76-.7,1.52-1.47,1.56l-8.22-.89c-.69-.16-1.47-.71-1.27-1.77,1.89-9.97,10.89-12.98,18.96-12.98,4.12,0,9.52,1.1,12.77,4.22,4.12,3.85,3.73,8.99,3.73,14.59v13.21c0,3.98,1.65,5.72,3.2,7.86.54.77.66,1.69-.03,2.25-1.73,1.45-4.81,4.12-6.5,5.63l-.02-.02Z"/>
        </g>
      </g>
    </g>
  </g>
</svg>